Coordinates
version=1
nRows=31
nColumns=38
inDegrees=no

Units are S.I. units (second, meters, Newtons, ...)
If the header above contains a line with 'inDegrees', this indicates whether rotational values are in degrees (yes) or radians (no).

endheader
time	pelvis_tilt	pelvis_list	pelvis_rotation	pelvis_tx	pelvis_ty	pelvis_tz	hip_flexion_r	hip_adduction_r	hip_rotation_r	knee_angle_r	ankle_angle_r	subtalar_angle_r	mtp_angle_r	hip_flexion_l	hip_adduction_l	hip_rotation_l	knee_angle_l	ankle_angle_l	subtalar_angle_l	mtp_angle_l	lumbar_extension	lumbar_bending	lumbar_rotation	arm_flex_r	arm_add_r	arm_rot_r	elbow_flex_r	pro_sup_r	wrist_flex_r	wrist_dev_r	arm_flex_l	arm_add_l	arm_rot_l	elbow_flex_l	pro_sup_l	wrist_flex_l	wrist_dev_l
40	-0.0789577	1.54684	1.77787	0.639341	0.387391	1.06552	0.107341	-0.0822245	-0.192437	0.266068	-0.305912	0	0	-0.0400987	-0.129988	-0.178175	0.000667571	-0.413238	0	0	-0.169695	0.00982974	0.0724508	1.0715	-0.650916	1.5708	0.8945	1.5708	0	0	0.952427	-0.552152	1.45324	0.900056	0	0	0
40.01	-0.0752087	1.54994	1.77459	0.639296	0.387893	1.06582	0.10347	-0.0814596	-0.192611	0.265794	-0.305946	0	0	-0.0412758	-0.131725	-0.181731	0.00802851	-0.407539	0	0	-0.177855	0.00795425	0.0635754	1.07699	-0.642858	1.5708	0.893094	1.5708	0	0	0.899698	-0.573694	1.32153	0.934614	0	0	0
40.02	-0.0901828	1.55164	1.78904	0.639364	0.388383	1.066	0.101707	-0.0813421	-0.191707	0.266895	-0.305192	0	0	-0.0432944	-0.131946	-0.18254	0.00916066	-0.406491	0	0	-0.177445	0.00806022	0.064248	1.07663	-0.642502	1.5708	0.891668	1.5708	0	0	0.900298	-0.571978	1.32427	0.931721	0	0	0
40.03	-0.106813	1.55292	1.80491	0.639463	0.388868	1.06611	0.100802	-0.0813755	-0.190927	0.268754	-0.304123	0	0	-0.0448817	-0.132074	-0.183608	0.010399	-0.405324	0	0	-0.176459	0.00806321	0.0654448	1.07592	-0.642184	1.5708	0.890073	1.5708	0	0	0.90131	-0.569644	1.32832	0.928011	0	0	0
40.04	-0.122838	1.5536	1.82008	0.639592	0.389348	1.06617	0.100857	-0.0815818	-0.190195	0.271223	-0.303002	0	0	-0.0457028	-0.132191	-0.184558	0.0118547	-0.404254	0	0	-0.174687	0.00792134	0.0670037	1.07458	-0.641705	1.5708	0.888114	1.5708	0	0	0.902289	-0.566548	1.33283	0.92327	0	0	0
40.05	-0.145662	1.55383	1.842	0.639716	0.389836	1.06618	0.101185	-0.0819238	-0.189366	0.273199	-0.302314	0	0	-0.0457714	-0.132255	-0.186039	0.0139956	-0.403381	0	0	-0.172597	0.00760967	0.0684968	1.07302	-0.640962	1.5708	0.886016	1.5708	0	0	0.902534	-0.563464	1.33593	0.918568	0	0	0
40.06	-0.218454	1.558	1.91278	0.639836	0.388486	1.06708	0.100711	-0.0822469	-0.187171	0.274722	-0.301639	0	0	-0.0484954	-0.130875	-0.185044	0.0127538	-0.403462	0	0	-0.224643	-0.00174821	0.0113334	1.07597	-0.587086	1.5708	0.8923	1.5708	0	0	0.528558	-0.521651	0.462152	1.08121	0.498922	0	0
40.07	-0.247837	1.56003	1.9424	0.639601	0.389071	1.06753	0.0981667	-0.0820358	-0.188331	0.275051	-0.302176	0	0	-0.0503067	-0.13154	-0.187081	0.015023	-0.40286	0	0	-0.223643	-0.000275183	0.0132739	1.07372	-0.587424	1.5708	0.888915	1.5708	0	0	0.53148	-0.516488	0.465661	1.07271	0.498558	0	0
40.08	-0.287339	1.56172	1.98227	0.639389	0.389644	1.06793	0.0960482	-0.0819357	-0.189227	0.27558	-0.302469	0	0	-0.0527381	-0.131637	-0.186737	0.014648	-0.403423	0	0	-0.222638	0.000885526	0.0147669	1.07166	-0.587311	1.5708	0.885132	1.5708	0	0	0.534243	-0.512272	0.469486	1.06513	0.497852	0	0
40.09	-0.316594	1.563	2.01195	0.639197	0.390194	1.06825	0.094562	-0.0818214	-0.189859	0.276446	-0.302589	0	0	-0.0545137	-0.131843	-0.18653	0.0146747	-0.403661	0	0	-0.221439	0.00190719	0.0158805	1.06976	-0.58666	1.5708	0.880755	1.5708	0	0	0.536572	-0.508853	0.473226	1.05862	0.496527	0	0
40.1	-0.337108	1.56393	2.03276	0.639043	0.390712	1.06847	0.0936139	-0.0817175	-0.190044	0.277574	-0.302486	0	0	-0.0558977	-0.132029	-0.186626	0.0147807	-0.403678	0	0	-0.219993	0.00272651	0.0169162	1.06768	-0.585561	1.5708	0.876167	1.5708	0	0	0.538833	-0.505805	0.477155	1.05247	0.494479	0	0
40.11	-0.362209	1.56476	2.05799	0.638909	0.391188	1.06865	0.0929319	-0.0816376	-0.189889	0.278943	-0.302199	0	0	-0.0569927	-0.132214	-0.187186	0.0153598	-0.403326	0	0	-0.218815	0.00340052	0.0180562	1.06583	-0.584601	1.5708	0.872049	1.5708	0	0	0.541144	-0.502986	0.480961	1.0468	0.492575	0	0
40.12	-0.384365	1.56535	2.08015	0.638819	0.39162	1.0688	0.0926283	-0.0814999	-0.189192	0.280418	-0.301722	0	0	-0.0576786	-0.132416	-0.187694	0.0162091	-0.402778	0	0	-0.217565	0.00389302	0.0189149	1.06407	-0.583033	1.5708	0.867548	1.5708	0	0	0.543118	-0.500825	0.484642	1.04159	0.491099	0	0
40.13	-0.371536	1.56556	2.06711	0.638748	0.392015	1.0689	0.0929908	-0.0812882	-0.188073	0.282195	-0.301005	0	0	-0.05787	-0.132562	-0.188248	0.0171289	-0.402159	0	0	-0.215962	0.00425878	0.0195221	1.06228	-0.580777	1.5708	0.862507	1.5708	0	0	0.544569	-0.499162	0.487885	1.03693	0.489248	0	0
40.14	-0.328292	1.56527	2.02346	0.638681	0.392389	1.06892	0.0940958	-0.0812683	-0.186647	0.284144	-0.300259	0	0	-0.057427	-0.132582	-0.189204	0.0182575	-0.401448	0	0	-0.213692	0.0043918	0.0199312	1.06022	-0.577873	1.5708	0.856913	1.5708	0	0	0.545551	-0.497611	0.490542	1.03236	0.487767	0	0
40.15	-0.257724	1.56426	1.95242	0.638653	0.392739	1.06882	0.0961485	-0.0814391	-0.184986	0.286298	-0.299379	0	0	-0.0560467	-0.132491	-0.190341	0.0196795	-0.400321	0	0	-0.210322	0.0042696	0.0204523	1.0576	-0.574635	1.5708	0.850801	1.5708	0	0	0.546909	-0.496167	0.494336	1.02713	0.485342	0	0
40.16	-0.22088	1.56326	1.9151	0.638663	0.393054	1.06867	0.0980966	-0.0816404	-0.183502	0.288331	-0.298452	0	0	-0.0545243	-0.132503	-0.191812	0.0216057	-0.398771	0	0	-0.206849	0.00388559	0.022834	1.05468	-0.574159	1.5708	0.846655	1.5708	0	0	0.55163	-0.493794	0.503249	1.01924	0.480108	0	0
40.17	-0.242621	1.56402	1.93628	0.638666	0.393308	1.06858	0.0979012	-0.0815891	-0.182255	0.289992	-0.297474	0	0	-0.0551477	-0.132765	-0.193811	0.0232027	-0.396737	0	0	-0.205582	0.00349914	0.0331901	1.05153	-0.587853	1.5708	0.856084	1.5708	0	0	0.567812	-0.485919	0.527329	1.00285	0.472918	0	0
40.18	-0.497663	1.56721	2.19074	0.638642	0.393886	1.06894	0.094626	-0.0810367	-0.181913	0.291484	-0.2968	0	0	-0.0589435	-0.13368	-0.196432	0.0245345	-0.394903	0	0	-0.211203	0.000744297	0.0535731	1.05065	-0.624702	1.5708	0.891706	1.5708	0	0	0.591572	-0.469915	0.552766	0.987297	0.472366	0	0
40.19	-2.97038	1.5643	-1.61873	0.63804	0.395011	1.06824	0.082332	-0.0805506	-0.187053	0.294619	-0.294988	0	0	-0.0717834	-0.136189	-0.201727	0.0256257	-0.391885	0	0	-0.254338	0.0296286	0.0739994	0.900807	-0.717775	1.21183	1.009	1.5708	0	0	0.591827	-0.4618	0.537677	1.01986	0.466545	0	0
40.2	-3.0411	1.56502	-1.54688	0.637779	0.395439	1.06831	0.0830563	-0.0804513	-0.188625	0.295762	-0.295053	0	0	-0.0694617	-0.137298	-0.203811	0.0298228	-0.389968	0	0	-0.249753	0.0298405	0.0677611	0.904118	-0.705872	1.22106	0.994386	1.5708	0	0	0.587302	-0.463655	0.53489	1.01649	0.466202	0	0
40.21	-3.13504	1.56552	-1.45187	0.637547	0.395832	1.0684	0.0835262	-0.0802604	-0.189938	0.29662	-0.295007	0	0	-0.0680296	-0.138027	-0.204368	0.0321326	-0.387806	0	0	-0.246154	0.0294597	0.0643765	0.902941	-0.698095	1.22249	0.983644	1.5708	0	0	0.586022	-0.463588	0.53541	1.01155	0.467019	0	0
40.22	3.05035	1.56538	-1.35326	0.637339	0.396148	1.06854	0.0831485	-0.0798528	-0.190742	0.296618	-0.295448	0	0	-0.0680471	-0.138594	-0.203723	0.0322003	-0.388649	0	0	-0.244613	0.0292957	0.0608908	0.90451	-0.691587	1.22722	0.975539	1.5708	0	0	0.583945	-0.464288	0.533763	1.00939	0.466839	0	0
40.23	2.93625	1.56571	-1.23845	0.637161	0.396421	1.06861	0.0837846	-0.0795259	-0.19143	0.297363	-0.295903	0	0	-0.0672939	-0.139146	-0.203042	0.032721	-0.389089	0	0	-0.241987	0.0290458	0.0564441	0.907172	-0.682634	1.23458	0.964552	1.5708	0	0	0.581054	-0.465544	0.531422	1.00676	0.466819	0	0
40.24	2.32126	1.56855	-0.622789	0.637013	0.39671	1.06833	0.0888594	-0.0798507	-0.191805	0.300617	-0.295285	0	0	-0.0619943	-0.139692	-0.203466	0.0363258	-0.387139	0	0	-0.233183	0.0313275	0.03615	0.935826	-0.64961	1.29027	0.929838	1.5708	0	0	0.557994	-0.476237	0.504358	1.01306	0.472734	0	0
40.25	1.25718	1.56856	0.441549	0.636908	0.396883	1.06817	0.0928804	-0.0801196	-0.191555	0.303995	-0.294582	0	0	-0.0586571	-0.140011	-0.203458	0.0383061	-0.386042	0	0	-0.228623	0.0313943	0.0288412	0.944366	-0.635638	1.30997	0.914138	1.5708	0	0	0.550805	-0.479251	0.496427	1.01238	0.475123	0	0
40.26	0.666873	1.56661	1.03178	0.636834	0.39701	1.06796	0.0974155	-0.0803539	-0.190704	0.307242	-0.293901	0	0	-0.0546156	-0.140375	-0.204135	0.0409772	-0.384726	0	0	-0.224074	0.0314367	0.0219661	0.95315	-0.621957	1.33045	0.898914	1.5708	0	0	0.543603	-0.482084	0.488221	1.01189	0.477949	0	0
40.27	0.462632	1.56407	1.23581	0.636788	0.397089	1.06773	0.102656	-0.0808081	-0.189819	0.31164	-0.292829	0	0	-0.0503628	-0.140656	-0.204951	0.0438073	-0.383208	0	0	-0.220371	0.0315346	0.015861	0.961279	-0.610041	1.3486	0.885766	1.5708	0	0	0.536815	-0.48458	0.479772	1.01204	0.481555	0	0
40.28	0.347111	1.56109	1.35103	0.636771	0.397131	1.06743	0.108185	-0.081312	-0.188404	0.315574	-0.291748	0	0	-0.0453999	-0.140897	-0.206274	0.047363	-0.38131	0	0	-0.217034	0.0316081	0.0100998	0.968404	-0.599132	1.36445	0.874583	1.5708	0	0	0.529945	-0.487079	0.470647	1.01299	0.486261	0	0
40.29	0.264546	1.55712	1.43322	0.636775	0.39717	1.067	0.11483	-0.0819751	-0.18685	0.319626	-0.290298	0	0	-0.0392399	-0.141028	-0.207757	0.0513151	-0.379198	0	0	-0.212943	0.0316984	0.00359377	0.97602	-0.587151	1.38176	0.863065	1.5708	0	0	0.521541	-0.490036	0.459525	1.01503	0.490855	0	0
40.3	0.220959	1.55363	1.4765	0.636785	0.397201	1.06662	0.120972	-0.0827208	-0.185706	0.323858	-0.289381	0	0	-0.0341257	-0.141082	-0.208502	0.0539554	-0.378269	0	0	-0.210231	0.0314932	-0.0008192	0.98136	-0.579079	1.39363	0.855241	1.5708	0	0	0.51604	-0.491928	0.45201	1.01609	0.493354	0	0
